# xmcd
#
# Track frame offsets: 
#        150
#        17512
#        36507
#        51830
#        69937
#        84880
#        107867
#        132062
#        156212
#        177020
#        201207
#        223230
#        250360
#        268960
#        292930
#
# Disc length: 4139 seconds
#
# Revision: 1
# Processed by: cddbd v1.5.2PL0 Copyright (c) Steve Scherf et al.
# Submitted via: ExactAudioCopy v1.3
#
DISCID=d710290f
DTITLE=Deep Forest - Essence of the forest
DYEAR=2004
DGENRE=Electronic
TTITLE0=Sweet Lullaby (Version 2004)
TTITLE1=Marta's Song
TTITLE2=Madazulu
TTITLE3=Night Bird (Version 2004)
TTITLE4=Freedom Cry
TTITLE5=Desert Walk (Version 2004)
TTITLE6=Dignity
TTITLE7=Ekue Ekue
TTITLE8=Bohème
TTITLE9=Yuki Song
TTITLE10=Deep Weather
TTITLE11=Green and Blue (Live)
TTITLE12=Twosome (Marta et Katalin Version)
TTITLE13=Will You Be Ready
TTITLE14=Undecided (Deep Radio Mix)
EXTD=YEAR: 2004
EXTT0=
EXTT1=
EXTT2=
EXTT3=
EXTT4=
EXTT5=
EXTT6=
EXTT7=
EXTT8=
EXTT9=
EXTT10=
EXTT11=
EXTT12=
EXTT13=
EXTT14=
PLAYORDER=
